<?xml version="1.0" encoding="UTF-8"?>
<svg version="1.1" xmlns="http://www.w3.org/2000/svg" width="512" height="512">
<path d="M0 0 C1.17385254 -0.02143066 2.34770508 -0.04286133 3.55712891 -0.06494141 C11.44299907 -0.09544986 16.42298713 0.58102389 22.875 5.3125 C25.92567161 9.40911616 26.87656975 13.16790644 27.0625 18.25 C26.35186588 22.90142333 24.59575235 25.66596171 21.4375 29.125 C14.35634281 33.58350638 7.41433625 33.32988807 -0.73608398 33.22094727 C-37.47389484 32.93371794 -72.43312412 43.12171809 -101.9375 65.25 C-102.8346875 65.92289062 -103.731875 66.59578125 -104.65625 67.2890625 C-123.24318368 81.88527218 -137.1132986 99.36467466 -147.9375 120.25 C-148.25702637 120.85779297 -148.57655273 121.46558594 -148.90576172 122.09179688 C-167.92441173 158.71736229 -169.64479115 202.26432508 -157.6015625 241.2734375 C-155.24656621 248.52193259 -152.29918506 255.41664334 -148.9375 262.25 C-148.47754639 263.19649414 -148.47754639 263.19649414 -148.00830078 264.16210938 C-140.82677768 278.77086866 -131.615947 291.16591207 -120.30126953 302.83056641 C-119.11357457 304.06673872 -117.95806131 305.33367253 -116.80859375 306.60546875 C-90.24721052 335.14206248 -48.666827 349.64250762 -10.53125 351.1484375 C17.71941145 351.94239485 45.37362574 344.87406445 70.0625 331.25 C71.12855469 330.67378906 72.19460938 330.09757812 73.29296875 329.50390625 C84.64627252 323.14429366 94.62558481 315.16940693 104.0625 306.25 C104.86171875 305.51523437 105.6609375 304.78046875 106.484375 304.0234375 C134.7152223 277.14119755 151.08228597 236.81239963 152.30859375 198.15625 C152.48428437 187.88318396 152.10304409 177.8401126 150.5 167.6875 C149.55956527 160.29836997 149.64270307 154.4791513 154.0625 148.25 C158.14796053 144.45635808 162.09825317 143.42959091 167.53125 143.0859375 C172.86353167 143.43154835 176.57805701 145.67260846 180.18359375 149.50390625 C182.27935072 152.56693567 182.99981975 154.94168783 183.75 158.5625 C183.98074219 159.63113281 184.21148437 160.69976562 184.44921875 161.80078125 C185.64531124 168.52784919 186.22557109 175.04075818 186.265625 181.859375 C186.27263931 182.6599231 186.27965363 183.46047119 186.28688049 184.28527832 C186.30430225 186.85690996 186.31073332 189.4283115 186.3125 192 C186.31317474 192.87748901 186.31384949 193.75497803 186.31454468 194.65905762 C186.29893185 207.41605474 185.96569185 219.77335599 183.0625 232.25 C182.89089355 233.02037598 182.71928711 233.79075195 182.54248047 234.58447266 C176.75184396 260.06016841 166.41554337 284.07569573 151.0625 305.25 C150.67126953 305.79672363 150.28003906 306.34344727 149.87695312 306.90673828 C118.79533034 350.02537888 71.99874068 375.78603644 20.0625 384.25 C-26.161951 391.60246577 -76.87414426 378.92819962 -115.0625 352.35546875 C-158.48126865 320.55829986 -187.75349005 276.52479798 -196.6875 222.9375 C-200.59517499 197.04214184 -199.21568166 170.65959337 -192.9375 145.25 C-192.76379883 144.53618164 -192.59009766 143.82236328 -192.41113281 143.08691406 C-181.84714585 100.88954656 -154.99711657 62.72607854 -119.9375 37.25 C-119.36338379 36.83153809 -118.78926758 36.41307617 -118.19775391 35.98193359 C-91.67256562 16.91207172 -60.4137104 4.91049029 -27.9375 1.25 C-26.96425781 1.13914062 -25.99101562 1.02828125 -24.98828125 0.9140625 C-16.67874584 0.15772102 -8.33891366 0.08551023 0 0 Z " fill="#000000" transform="translate(261.9375,63.75)"/>
<path d="M0 0 C4.63058268 2.14991339 8.04027383 5.22783348 10 10 C10.48153696 13.97194585 10.377868 17.88158407 10.25 21.875 C10.23195313 22.94492188 10.21390625 24.01484375 10.1953125 25.1171875 C10.14837439 27.74572178 10.08272933 30.37238913 10 33 C10.84820312 33.13535156 11.69640625 33.27070313 12.5703125 33.41015625 C27.94385433 36.23145459 41.34170987 42.76802221 50.90625 55.546875 C52.44672378 57.97840715 53.76561188 60.40106718 55 63 C55.50660156 64.05767578 55.50660156 64.05767578 56.0234375 65.13671875 C58.71196074 71.80869616 58.77331562 78.9185143 58 86 C55.79186259 90.925845 52.89594362 93.72688332 48 96 C42.4002288 96.75381535 37.66500009 96.77303575 32.5 94.375 C27.56411342 89.68590775 25.78185012 85.6034258 24.46484375 79.10546875 C23.60886856 75.22840468 22.41921109 73.06518469 19.21484375 70.66015625 C7.03413767 63.45201972 -9.61138029 63.89010251 -23 67 C-28.45303483 68.94995599 -32.9094495 70.93149718 -36 76 C-36.60959082 80.80052769 -36.85928771 82.8184794 -34 86.75 C-24.51391649 93.86456263 -14.48960143 94.68912234 -2.96875 95.19921875 C16.27114651 96.05137952 33.27441054 100.63715103 47 115 C56.54156279 125.73425813 58.78694559 136.92455578 58.17480469 150.91894531 C57.30161334 161.31431266 50.77990432 170.62810056 43.4375 177.6875 C34.43747559 185.06542699 21.71658554 191 10 191 C10.0314209 191.99797607 10.0314209 191.99797607 10.06347656 193.01611328 C10.14700609 196.05225302 10.19877603 199.08815043 10.25 202.125 C10.28351563 203.17171875 10.31703125 204.2184375 10.3515625 205.296875 C10.4308835 211.56323361 10.2241437 215.25169249 6 220 C2.18069828 223.62833663 -0.88279006 224.31000458 -6 224.5 C-11.11720994 224.31000458 -14.18069828 223.62833663 -18 220 C-22.93059477 214.4575796 -22.4798158 209.30232434 -22.25 202.125 C-22.23195312 201.05507813 -22.21390625 199.98515625 -22.1953125 198.8828125 C-22.14837439 196.25427822 -22.08272933 193.62761087 -22 191 C-22.57500244 190.95246582 -23.15000488 190.90493164 -23.74243164 190.85595703 C-35.29848443 189.76108482 -45.0337235 185.33324333 -54 178 C-54.70898438 177.42765625 -55.41796875 176.8553125 -56.1484375 176.265625 C-63.71681222 169.48018559 -69.48943486 158.94703383 -70.23828125 148.7578125 C-70.43809825 138.9772961 -70.43809825 138.9772961 -68.375 134.375 C-63.71508799 129.71508799 -60.66406003 127.74742797 -54 127.5 C-48.88279006 127.68999542 -45.81930172 128.37166337 -42 132 C-39.151359 135.40254341 -37.86990454 138.14334442 -37.125 142.4375 C-36.09194389 147.55112773 -34.21271282 150.85069041 -30 154 C-17.48835958 160.17140885 -3.36304913 159.85921096 10 157 C13.1565085 155.89869072 16.04094713 154.53950724 19 153 C19.99 152.67 20.98 152.34 22 152 C23.77559146 148.98149451 24.00032634 147.01827529 23.9375 143.5 C22.62560862 138.60227219 20.46013328 136.53358958 16.1953125 133.875 C7.7956467 129.56422812 -1.85170224 129.29845949 -11.109375 128.61328125 C-30.07402546 127.15885201 -46.25448399 122.92922533 -59.921875 108.671875 C-68.81308334 97.24032143 -71.16230948 85.16418973 -70 71 C-67.92895242 60.27540328 -61.27586408 51.16442579 -52.6875 44.625 C-42.96600881 38.09504232 -33.48902318 35.06299248 -22 33 C-22.02094727 32.33468262 -22.04189453 31.66936523 -22.06347656 30.98388672 C-22.14700609 27.94774698 -22.19877603 24.91184957 -22.25 21.875 C-22.28351563 20.82828125 -22.31703125 19.7815625 -22.3515625 18.703125 C-22.4308835 12.43676639 -22.2241437 8.74830751 -18 4 C-12.72867143 -1.00776214 -6.89190982 -0.92775709 0 0 Z " fill="#000000" transform="translate(262,144)"/>
<path d="M0 0 C0.73250977 -0.00700928 1.46501953 -0.01401855 2.21972656 -0.02124023 C4.62604382 -0.03875584 7.03117209 -0.02722142 9.4375 -0.01367188 C11.11849186 -0.01636866 12.79948221 -0.02025264 14.48046875 -0.02526855 C17.99754743 -0.03115485 21.5142188 -0.02262896 25.03125 -0.00390625 C29.53052189 0.01888312 34.02883927 0.00575532 38.52807617 -0.01819611 C41.99746847 -0.03267779 45.46663594 -0.02803731 48.93603516 -0.01768494 C50.59456496 -0.01502418 52.25311544 -0.01826444 53.91162109 -0.02760315 C56.23329421 -0.03780834 58.55344011 -0.02221466 60.875 0 C62.19371094 0.00318237 63.51242187 0.00636475 64.87109375 0.00964355 C70.3879267 0.79536172 73.2388314 3.0964897 76.78015137 7.29492188 C78.76746485 11.15918319 78.94461752 13.74541501 78.95507812 18.08007812 C78.9620874 18.81258789 78.96909668 19.54509766 78.97631836 20.29980469 C78.99383397 22.70612195 78.98229954 25.11125021 78.96875 27.51757812 C78.97144679 29.19856999 78.97533077 30.87956033 78.98034668 32.56054688 C78.98623298 36.07762556 78.97770709 39.59429692 78.95898438 43.11132812 C78.93619501 47.61060002 78.9493228 52.10891739 78.97327423 56.6081543 C78.98775591 60.07754659 78.98311544 63.54671407 78.97276306 67.01611328 C78.97010231 68.67464309 78.97334257 70.33319357 78.98268127 71.99169922 C78.99288646 74.31337233 78.97729279 76.63351823 78.95507812 78.95507812 C78.95189575 80.27378906 78.94871338 81.5925 78.94543457 82.95117188 C78.19142424 88.24537179 75.74548979 91.27498783 71.9375 94.89257812 C66.77249991 97.29061388 62.0372712 97.27139348 56.4375 96.51757812 C51.45821169 94.20576569 49.13692396 91.22931268 46.4375 86.51757812 C45.89160156 83.17431641 45.89160156 83.17431641 45.828125 79.58789062 C45.79589844 78.29882812 45.76367188 77.00976562 45.73046875 75.68164062 C45.7157277 74.33529097 45.70141 72.98893662 45.6875 71.64257812 C45.65931288 70.27274909 45.62938163 68.90295478 45.59765625 67.53320312 C45.52712243 64.1946021 45.47434015 60.85669298 45.4375 57.51757812 C44.78239441 58.17712494 44.12728882 58.83667175 43.45233154 59.51620483 C37.27780909 65.73080073 31.09848636 71.94057458 24.91372299 78.14497948 C21.73424443 81.33489537 18.55665321 84.52664504 15.38330078 87.72265625 C12.32080199 90.80688497 9.25344407 93.88620305 6.18265533 96.96217728 C5.01193094 98.13659714 3.84296835 99.31277599 2.67580414 100.4907341 C1.04077698 102.14027797 -0.60040156 103.78345753 -2.24316406 105.42529297 C-2.7243721 105.91369156 -3.20558014 106.40209015 -3.70137024 106.9052887 C-8.15847734 111.33525196 -11.16533505 112.81277959 -17.4375 112.89257812 C-22.64516907 112.7912123 -25.66830633 112.21706211 -29.5625 108.51757812 C-33.15534375 104.24500718 -34.8353518 100.12007372 -34.5625 94.51757812 C-33.1788749 88.74214859 -30.59208076 84.92923037 -26.35668945 80.74414062 C-25.83931213 80.22603317 -25.32193481 79.70792572 -24.78887939 79.17411804 C-23.09610357 77.48479254 -21.38639342 75.8138231 -19.67578125 74.14257812 C-18.49070419 72.96683825 -17.30673493 71.78998082 -16.12382507 70.61206055 C-13.02273904 67.52997271 -9.90693081 64.46320377 -6.78771973 61.3994751 C-3.60133061 58.26443344 -0.42922668 55.11500923 2.74414062 51.96679688 C8.96143696 45.80296144 15.19437411 39.65524985 21.4375 33.51757812 C20.5904248 33.50823242 19.74334961 33.49888672 18.87060547 33.48925781 C15.70555648 33.44505201 12.54145188 33.38335286 9.37695312 33.31005859 C8.01151836 33.2819619 6.64592436 33.26069135 5.28027344 33.24658203 C3.30895962 33.2249983 1.33800369 33.17622353 -0.6328125 33.12695312 C-1.81633301 33.10600586 -2.99985352 33.08505859 -4.21923828 33.06347656 C-9.33360472 32.2283865 -12.4277791 29.71202118 -15.9375 26.01757812 C-18.33553575 20.85257804 -18.31631535 16.11734933 -17.5625 10.51757812 C-13.97822937 2.79761062 -8.2761305 0.01997233 0 0 Z " fill="#000000" transform="translate(353.5625,63.482421875)"/>
</svg>
